HIERARCHY
ROOT root
{
	OFFSET 0.000000 0.000000 0.000000
	CHANNELS 6 Xposition Yposition Zposition Zrotation Yrotation Xrotation
	JOINT lhip
	{
		OFFSET 0.058581 -0.082280 -0.017664
		CHANNELS 3 Zrotation Yrotation Xrotation
		JOINT lknee
		{
			OFFSET 0.043451 -0.386469 0.008037
			CHANNELS 3 Zrotation Yrotation Xrotation
			JOINT lankle
			{
				OFFSET -0.014790 -0.426874 -0.037428
				CHANNELS 3 Zrotation Yrotation Xrotation
				JOINT ltoe
				{
					OFFSET 0.041054 -0.060286 0.122042
					CHANNELS 3 Zrotation Yrotation Xrotation
					End Site
					{
						OFFSET 0.000000 0.000000 0.000000
					}
				}
			}
		}
	}
	JOINT rhip
	{
		OFFSET -0.060310 -0.090513 -0.013543
		CHANNELS 3 Zrotation Yrotation Xrotation
		JOINT rknee
		{
			OFFSET -0.043257 -0.383688 -0.004843
			CHANNELS 3 Zrotation Yrotation Xrotation
			JOINT rankle
			{
				OFFSET 0.019056 -0.420046 -0.034562
				CHANNELS 3 Zrotation Yrotation Xrotation
				JOINT rtoe
				{
					OFFSET -0.034840 -0.062106 0.130323
					CHANNELS 3 Zrotation Yrotation Xrotation
					End Site
					{
						OFFSET 0.000000 0.000000 0.000000
					}
				}
			}
		}
	}
	JOINT lowerback
	{
		OFFSET 0.004439 0.124404 -0.038385
		CHANNELS 3 Zrotation Yrotation Xrotation
		JOINT upperback
		{
			OFFSET 0.004488 0.137956 0.026820
			CHANNELS 3 Zrotation Yrotation Xrotation
			JOINT chest
			{
				OFFSET -0.002265 0.056032 0.002855
				CHANNELS 3 Zrotation Yrotation Xrotation
				JOINT lowerneck
				{
					OFFSET -0.013390 0.211636 -0.033468
					CHANNELS 3 Zrotation Yrotation Xrotation
					JOINT upperneck
					{
						OFFSET 0.010113 0.088937 0.050410
						CHANNELS 3 Zrotation Yrotation Xrotation
						End Site
						{
							OFFSET 0.000000 0.000000 0.000000
						}
					}
				}
				JOINT lclavicle
				{
					OFFSET 0.071702 0.114000 -0.018898
					CHANNELS 3 Zrotation Yrotation Xrotation
					JOINT lshoulder
					{
						OFFSET 0.122921 0.045205 -0.019046
						CHANNELS 3 Zrotation Yrotation Xrotation
						JOINT lelbow
						{
							OFFSET 0.255332 -0.015649 -0.022946
							CHANNELS 3 Zrotation Yrotation Xrotation
							JOINT lwrist
							{
								OFFSET 0.265709 0.012698 -0.007375
								CHANNELS 3 Zrotation Yrotation Xrotation
								End Site
								{
									OFFSET 0.000000 0.000000 0.000000
								}
							}
						}
					}
				}
				JOINT rclavicle
				{
					OFFSET -0.082954 0.112472 -0.023707
					CHANNELS 3 Zrotation Yrotation Xrotation
					JOINT rshoulder
					{
						OFFSET -0.113228 0.046853 -0.008472
						CHANNELS 3 Zrotation Yrotation Xrotation
						JOINT relbow
						{
							OFFSET -0.260127 -0.014369 -0.031269
							CHANNELS 3 Zrotation Yrotation Xrotation
							JOINT rwrist
							{
								OFFSET -0.269108 0.006794 -0.006027
								CHANNELS 3 Zrotation Yrotation Xrotation
								End Site
								{
									OFFSET 0.000000 0.000000 0.000000
								}
							}
						}
					}
				}
			}
		}
	}
}
MOTION
Frames: 7
Frame Time: 0.033333
-0.468392 0.376116 0.997987 84.959546 -0.212204 86.644706 -3.627665 -0.417869 4.317807 -1.198948 -8.399056 3.848215 4.665312 9.809750 -13.462010 0.000000 -0.000000 0.000000 4.851428 -1.640284 -1.996779 -0.769669 0.436943 13.861721 -0.186577 -9.735021 -14.352270 0.000000 -0.000000 0.000000 0.860146 1.164816 6.803865 0.981996 -0.225302 -2.391571 0.315833 -0.924842 3.205963 1.411532 6.916792 -5.197886 -3.415691 1.041461 10.347641 -27.759203 6.344837 -0.880466 -58.958383 -6.221950 10.707837 8.754318 -28.779652 9.414603 -4.890479 -3.188221 -3.376875 28.568496 -0.351694 -0.053365 56.877128 5.923583 15.035069 -12.455245 20.171215 -5.541727 6.848186 0.856258 -7.159672 
-0.468960 0.376000 0.998084 85.104581 -0.279193 86.763604 -3.734489 -0.606615 4.264335 -1.119202 -8.464246 3.639338 4.653786 9.949017 -13.321115 0.000000 -0.000000 0.000000 4.731409 -1.399593 -2.088392 -0.648208 0.216668 13.761517 -0.010681 -9.968260 -14.373576 0.000000 -0.000000 0.000000 0.721699 1.066479 6.783586 0.947095 -0.136301 -2.293895 0.368450 -0.898137 3.231958 1.424706 6.928677 -5.182898 -3.533430 1.085511 10.367218 -27.757592 6.360777 -0.775351 -59.065606 -6.216335 10.767404 8.945424 -28.803155 9.227411 -4.860248 -3.053101 -3.530981 28.412172 -0.353600 -0.026688 57.101003 5.908043 15.171156 -12.574612 20.234076 -5.720665 6.958048 0.909142 -7.304962 
-0.467982 0.376104 0.997965 85.577638 -0.352480 86.401354 -3.822380 -0.592802 4.810684 -1.022363 -8.794362 3.405268 4.470972 9.828733 -13.278364 0.000000 -0.000000 0.000000 4.702111 -0.661158 -1.363623 -0.719511 -0.518732 13.426180 -0.068672 -10.397819 -14.523236 0.000000 -0.000000 0.000000 0.615775 0.703071 7.202785 0.860013 -0.108398 -2.246224 0.378136 -0.891113 3.285050 1.484766 6.932022 -5.222020 -3.521768 0.990049 10.525612 -27.703986 6.342947 -0.597642 -59.155379 -6.232767 10.661304 9.034845 -28.550382 9.152982 -5.080329 -3.109510 -3.749144 28.453985 -0.329408 -0.053432 57.141487 5.827334 15.176402 -12.479737 20.110795 -5.690707 6.941096 1.465629 -7.510682 
-0.468658 0.376169 0.998011 85.722500 -0.360698 86.403040 -3.822309 -0.507743 4.775939 -0.953239 -8.918676 3.360556 4.398824 9.699543 -13.248733 0.000000 -0.000000 0.000000 4.674440 -0.699822 -1.299005 -0.679398 -0.539760 13.291004 -0.001303 -10.396944 -14.482474 0.000000 -0.000000 0.000000 0.622920 0.695569 7.425669 0.789995 -0.109049 -2.160276 0.312759 -0.861143 3.270053 1.388143 6.927980 -5.275841 -3.432079 0.944001 10.492855 -27.794190 6.370015 -0.532207 -59.054077 -6.126408 10.571557 9.036280 -28.512753 8.977613 -5.079658 -2.798759 -3.622502 28.585532 -0.297575 -0.100322 57.109851 5.828469 15.133987 -12.405370 20.200323 -5.681426 6.941390 1.429758 -7.427431 
-0.468930 0.376030 0.997994 85.756855 -0.392440 86.450099 -3.846278 -0.574712 4.711041 -0.974489 -8.903050 3.368981 4.459983 9.704793 -13.198788 0.000000 -0.000000 0.000000 4.650343 -0.671240 -1.365546 -0.673273 -0.560602 13.302610 -0.019094 -10.466753 -14.487613 0.000000 -0.000000 0.000000 0.582732 0.748982 7.449751 0.758885 -0.095525 -2.086905 0.300122 -0.859798 3.245676 1.368565 6.968019 -5.122537 -3.419510 1.022983 10.402764 -27.775997 6.349492 -0.416028 -59.070778 -6.048462 10.498980 9.134675 -28.350676 8.867601 -5.187467 -2.590842 -3.734336 28.563369 -0.247305 -0.014570 57.199420 5.849362 15.131647 -12.489448 20.134832 -5.702957 6.998814 1.355111 -7.525995 
-0.469471 0.375811 0.997980 85.864054 -0.390944 86.534131 -3.793286 -0.637359 4.523614 -1.036415 -8.929131 3.458613 4.427993 9.743021 -13.117565 0.000000 -0.000000 0.000000 4.629778 -0.682000 -1.406287 -0.594647 -0.590043 13.151899 -0.076981 -10.498004 -14.422236 0.000000 -0.000000 0.000000 0.561007 0.828453 7.562104 0.734464 -0.093691 -2.050019 0.303625 -0.857008 3.275939 1.331158 6.865490 -5.246741 -3.526961 0.951361 10.245457 -27.849780 6.336377 -0.470243 -59.028923 -6.016418 10.428360 9.087335 -28.001484 8.876979 -5.243738 -2.402245 -3.756192 28.584337 -0.191126 0.079401 57.184524 5.884708 15.119917 -12.531424 20.164302 -5.710437 6.904532 1.274931 -7.493664 
-0.469912 0.375620 0.997972 85.887457 -0.406125 86.651578 -3.793420 -0.708342 4.472718 -1.020593 -8.884140 3.243404 4.444571 9.792665 -12.964964 0.000000 -0.000000 0.000000 4.644676 -0.738165 -1.527146 -0.637562 -0.595730 13.084361 -0.052208 -10.487856 -14.299153 0.000000 -0.000000 0.000000 0.550684 0.893808 7.624297 0.699871 -0.057675 -2.094316 0.271511 -0.849554 3.286154 1.268443 6.894075 -5.313975 -3.487242 0.910458 10.369967 -27.869678 6.434441 -0.438104 -59.053035 -5.889678 10.392357 9.213645 -27.730840 8.735680 -5.255347 -2.320971 -3.659070 28.622180 -0.202497 0.130593 57.198120 5.937672 15.144406 -12.535100 20.127751 -5.812935 6.882027 1.302749 -7.523139 
